<?xml version="1.0" encoding="UTF-8" standalone="no"?>
<!-- Created with Inkscape (http://www.inkscape.org/) -->
<svg
   xmlns:svg="http://www.w3.org/2000/svg"
   xmlns="http://www.w3.org/2000/svg"
   xmlns:inkscape="http://www.inkscape.org/namespaces/inkscape"
   version="1.0"
   width="55"
   height="55"
   id="svg2">
  <path
     d="M 25.731189,3.8741489 C 21.525742,3.8741489 18.07553,7.4486396 17.497605,12.06118 C 16.385384,10.910965 14.996889,10.217536 13.45908,10.217535 C 9.8781481,10.217535 6.9473481,13.959873 6.9473482,18.560807 C 6.9473482,19.228828 7.0507906,19.875499 7.166493,20.498196 C 3.850265,21.890233 1.5000346,25.3185 1.5000346,29.310191 C 1.5000346,34.243794 5.1009986,38.27659 9.6710049,38.715902 C 9.6186538,39.029349 9.6083922,39.33212 9.6083922,39.653348 C 9.6083922,45.134228 17.378069,49.59028 26.983444,49.590279 C 36.58882,49.590279 44.389805,45.134229 44.389803,39.653348 C 44.389803,39.35324 44.341646,39.071755 44.295883,38.778399 C 44.369863,38.780301 44.440617,38.778399 44.515029,38.778399 C 49.470875,38.778399 53.499966,34.536825 53.499965,29.310191 C 53.499965,24.377592 49.928977,20.313927 45.360301,19.873232 C 45.432415,19.39158 45.485527,18.91118 45.485527,18.404567 C 45.485527,13.821862 42.394553,10.092543 38.598118,10.092543 C 36.825927,10.092543 35.215888,10.918252 33.996078,12.248669 C 33.491655,7.5434856 29.994502,3.8741489 25.731189,3.8741489 z"
     id="path2388"
     style="fill:#ffffff;fill-opacity:1;stroke:#6388dc;stroke-width:3.0;stroke-linejoin:round;stroke-miterlimit:4;stroke-dasharray:none;stroke-opacity:1" />
</svg>
