<?xml version="1.0" encoding="UTF-8" standalone="no"?>
<svg
   xmlns:dc="http://purl.org/dc/elements/1.1/"
   xmlns:cc="http://creativecommons.org/ns#"
   xmlns:rdf="http://www.w3.org/1999/02/22-rdf-syntax-ns#"
   xmlns:svg="http://www.w3.org/2000/svg"
   xmlns="http://www.w3.org/2000/svg"
   xml:space="preserve"
   id="svg2"
   viewBox="0 0 55 55"
   height="160"
   width="160"
   version="1.0"><metadata
     id="metadata4728"><rdf:RDF><cc:Work
         rdf:about=""><dc:format>image/svg+xml</dc:format><dc:type
           rdf:resource="http://purl.org/dc/dcmitype/StillImage" /><dc:title></dc:title></cc:Work></rdf:RDF></metadata><defs
     id="defs12" /><g
     transform="matrix(1.0162719,0,0,1.0162745,-0.0629825,-0.83188265)"
     id="g5942"><path
       d="M 12.362217,49.365687 43.7591,17.968803 l 4.48527,4.48527 1.121317,-16.8197603 -16.819759,1.1213179 4.485269,4.4852684 -31.396884,31.396884 6.727904,6.727904 z"
       id="path2381"
       style="fill:none;fill-rule:evenodd;stroke:none" /><path
       d="m 15.745709,32.526387 -10.1113959,10.111396 6.7279039,6.727905 0,0 10.09576,-10.09576"
       id="path2389"
       style="fill:#ffffff;stroke:#c83639;stroke-width:3.50000000000000000;stroke-linejoin:round;stroke-miterlimit:4;stroke-opacity:1;stroke-dasharray:none;fill-opacity:1" /><path
       d="m 36.601427,25.126478 7.157675,-7.157675 4.485268,4.48527 1.121318,-16.8197604 -16.819759,1.1213179 4.485268,4.4852685 -7.188931,7.188931"
       id="path2385"
       style="fill:#ffffff;stroke:#c83639;stroke-width:3.50000000000000000;stroke-linejoin:round;stroke-miterlimit:4;stroke-opacity:1;stroke-dasharray:none;fill-opacity:1" /><path
       d="m 37.334803,28.861336 c 0,6.163892 -4.996822,11.160714 -11.160714,11.160714 -6.163892,0 -11.160714,-4.996822 -11.160714,-11.160714 0,-6.163893 4.996822,-11.160715 11.160714,-11.160715 6.163892,0 11.160714,4.996822 11.160714,11.160715 l 0,0 z"
       id="path3173"
       style="fill:#ffffff;stroke:#c83639;stroke-width:3.50000000000000000;stroke-miterlimit:4;stroke-dasharray:none;stroke-opacity:1;fill-opacity:1" /></g></svg>